<?xml version="1.0" encoding="UTF-8" standalone="no"?>
<svg
   width="100"
   height="100"
   viewBox="0 0 100 100"
   fill="none"
   class="h-20 w-20"
   version="1.1"
   id="svg2"
   sodipodi:docname="logo-blue.svg"
   inkscape:version="1.4.3 (0d15f75, 2025-12-25)"
   xmlns:inkscape="http://www.inkscape.org/namespaces/inkscape"
   xmlns:sodipodi="http://sodipodi.sourceforge.net/DTD/sodipodi-0.dtd"
   xmlns="http://www.w3.org/2000/svg"
   xmlns:svg="http://www.w3.org/2000/svg">
  <sodipodi:namedview
     id="namedview2"
     pagecolor="#505050"
     bordercolor="#eeeeee"
     borderopacity="1"
     inkscape:showpageshadow="0"
     inkscape:pageopacity="0"
     inkscape:pagecheckerboard="0"
     inkscape:deskcolor="#505050"
     inkscape:zoom="8.92"
     inkscape:cx="50"
     inkscape:cy="49.943946"
     inkscape:window-width="1826"
     inkscape:window-height="1186"
     inkscape:window-x="0"
     inkscape:window-y="31"
     inkscape:window-maximized="0"
     inkscape:current-layer="svg2" />
  <path
     d="M43.4175 -0.000488281C50.4387 -0.000488281 56.7957 2.84467 61.3979 7.44482C63.4989 6.88303 65.7068 6.58252 67.9849 6.58252C82.0316 6.58255 93.4185 17.9694 93.4185 32.0161C93.4184 34.294 93.1169 36.5013 92.5552 38.6021C97.1554 43.2043 100 49.5613 100 56.5825C100 68.3512 92.0064 78.2507 81.1528 81.1528C78.2507 92.0064 68.3512 100 56.5825 100C49.5598 100 43.2016 97.1542 38.5991 92.5522C36.4992 93.1134 34.2929 93.4145 32.0161 93.4146C17.9694 93.4146 6.58252 82.0277 6.58252 67.981C6.58253 65.7046 6.88286 63.4985 7.44385 61.3989C2.84423 56.7967 -0.000488281 50.4402 -0.000488281 43.4194C-0.000393283 31.651 7.99283 21.7504 18.8462 18.8481C21.7478 7.99388 31.6484 -0.000343176 43.4175 -0.000488281ZM42.9487 40.2603C41.1918 33.7038 35.3761 29.5653 29.9604 31.0161C24.5449 32.4675 21.5777 38.9595 23.3345 45.5161C23.363 45.6225 23.3933 45.7288 23.4243 45.8345L23.4204 45.8354L25.2163 52.5376C26.9734 59.094 32.7889 63.2328 38.2046 61.7817C43.6199 60.3303 46.5871 53.8381 44.8306 47.2817L43.0347 40.5796L43.0308 40.5806C43.0048 40.4736 42.9772 40.3666 42.9487 40.2603ZM72.8159 32.8921C71.0589 26.3359 65.2432 22.1973 59.8276 23.6479C54.4122 25.0993 51.4442 31.5915 53.2007 38.1479C53.2292 38.2543 53.2595 38.3616 53.2905 38.4673L53.2866 38.4683L55.0825 45.1694C56.8395 51.7256 62.6553 55.8651 68.0708 54.4146C73.4864 52.9633 76.4535 46.4701 74.6968 39.9136L72.9019 33.2124L72.8979 33.2134C72.872 33.1063 72.8444 32.9984 72.8159 32.8921ZM35.9956 45.7407C36.8416 45.5144 37.7121 46.017 37.939 46.8628C38.1654 47.7087 37.6627 48.5782 36.8169 48.8052C35.9708 49.0318 35.1005 48.5301 34.8735 47.6841C34.6471 46.8381 35.1497 45.9676 35.9956 45.7407ZM28.9487 35.8481C30.4321 38.1604 32.9448 39.6113 35.689 39.7397C33.3765 41.2231 31.9257 43.7367 31.7974 46.481C30.314 44.1685 27.8004 42.7167 25.0562 42.5884C27.3686 41.1051 28.8204 38.5924 28.9487 35.8481ZM65.8638 38.3667C66.7095 38.1405 67.579 38.6424 67.8062 39.4878C68.0328 40.3338 67.5309 41.2041 66.6851 41.4312C65.8389 41.6577 64.9685 41.1552 64.7417 40.3091C64.5156 39.4632 65.0181 38.5936 65.8638 38.3667ZM58.814 28.4731C60.2972 30.7857 62.8109 32.2363 65.5552 32.3647C63.2428 33.848 61.792 36.3618 61.6636 39.106C60.1802 36.7938 57.6665 35.3427 54.9224 35.2144C57.2349 33.731 58.6857 31.2176 58.814 28.4731Z"
     fill="url(#paint0_linear_1_881)"
     id="path1"
     style="fill:#000000" />
  <defs
     id="defs2">
    <linearGradient
       id="paint0_linear_1_881"
       x1="57.7481"
       y1="17.9369"
       x2="54.9829"
       y2="85.4047"
       gradientUnits="userSpaceOnUse">
      <stop
         stop-color="white"
         id="stop1" />
      <stop
         offset="1"
         stop-color="#A7D8FF"
         id="stop2" />
    </linearGradient>
  </defs>
</svg>
